<?xml version="1.0" encoding="UTF-8"?>
<svg width="240px" height="240px" viewBox="0 0 240 240" version="1.1" 
    xmlns="http://www.w3.org/2000/svg" 
    xmlns:xlink="http://www.w3.org/1999/xlink">
    <g stroke="none" fill="none" fill-rule="evenodd">
        <path d="M119.919998,8.66031759 L23.5,64.3300635 L23.5,175.669937 L119.919998,231.339682 L216.339996,175.669937 L216.339996,64.3300635 L119.919998,8.66031759 Z" stroke="#959595" stroke-width="13"></path>
        <path d="M119.919998,7.50560858 L22.5,63.7527217 L22.5,176.247278 L119.919998,232.494391 L217.339996,176.247278 L217.339996,63.7527217 L119.919998,7.50560858 Z" stroke="#959595" stroke-width="13"></path>
        <g transform="translate(80.000000, 60.000000)" fill="#959595" fill-rule="nonzero">
            <path d="M57.5,35 C57.5,35.6770833 57.2526042,36.2630208 56.7578125,36.7578125 C56.2630208,37.2526042 55.6770833,37.5 55,37.5 C54.3229167,37.5 53.7369792,37.2526042 53.2421875,36.7578125 C52.7473958,36.2630208 52.5,35.6770833 52.5,35 C52.5,32.6041667 51.09375,30.7552083 48.28125,29.453125 C45.46875,28.1510417 42.7083333,27.5 40,27.5 C39.3229167,27.5 38.7369792,27.2526042 38.2421875,26.7578125 C37.7473958,26.2630208 37.5,25.6770833 37.5,25 C37.5,24.3229167 37.7473958,23.7369792 38.2421875,23.2421875 C38.7369792,22.7473958 39.3229167,22.5 40,22.5 C42.6041667,22.5 45.1953125,22.9166667 47.7734375,23.75 C50.3515625,24.5833333 52.6171875,25.9895833 54.5703125,27.96875 C56.5234375,29.9479167 57.5,32.2916667 57.5,35 Z M70,35 C70,31.25 69.1015625,27.7604167 67.3046875,24.53125 C65.5078125,21.3020833 63.1640625,18.6588542 60.2734375,16.6015625 C57.3828125,14.5442708 54.1796875,12.9296875 50.6640625,11.7578125 C47.1484375,10.5859375 43.59375,10 40,10 C36.40625,10 32.8515625,10.5859375 29.3359375,11.7578125 C25.8203125,12.9296875 22.6171875,14.5442708 19.7265625,16.6015625 C16.8359375,18.6588542 14.4921875,21.3020833 12.6953125,24.53125 C10.8984375,27.7604167 10,31.25 10,35 C10,40.2604167 11.7708333,44.9479167 15.3125,49.0625 C15.8333333,49.6354167 16.6276042,50.4947917 17.6953125,51.640625 C18.7630208,52.7864583 19.5572917,53.6458333 20.078125,54.21875 C26.7447917,62.1875 30.4166667,69.9479167 31.09375,77.5 L48.90625,77.5 C49.5833333,69.9479167 53.2552083,62.1875 59.921875,54.21875 C60.4427083,53.6458333 61.2369792,52.7864583 62.3046875,51.640625 C63.3723958,50.4947917 64.1666667,49.6354167 64.6875,49.0625 C68.2291667,44.9479167 70,40.2604167 70,35 Z M80,35 C80,43.0729167 77.3177083,50.0520833 71.953125,55.9375 C69.609375,58.4895833 67.6692708,60.7552083 66.1328125,62.734375 C64.5963542,64.7135417 63.046875,67.2005208 61.484375,70.1953125 C59.921875,73.1901042 59.0364583,75.9895833 58.828125,78.59375 C61.2760417,80.0520833 62.5,82.1875 62.5,85 C62.5,86.9270833 61.8489583,88.59375 60.546875,90 C61.8489583,91.40625 62.5,93.0729167 62.5,95 C62.5,97.7083333 61.328125,99.8177083 58.984375,101.328125 C59.6614583,102.526042 60,103.75 60,105 C60,107.395833 59.1796875,109.244792 57.5390625,110.546875 C55.8984375,111.848958 53.8802083,112.5 51.484375,112.5 C50.4427083,114.791667 48.8802083,116.614583 46.796875,117.96875 C44.7135417,119.322917 42.4479167,120 40,120 C37.5520833,120 35.2864583,119.322917 33.203125,117.96875 C31.1197917,116.614583 29.5572917,114.791667 28.515625,112.5 C26.1197917,112.5 24.1015625,111.848958 22.4609375,110.546875 C20.8203125,109.244792 20,107.395833 20,105 C20,103.75 20.3385417,102.526042 21.015625,101.328125 C18.671875,99.8177083 17.5,97.7083333 17.5,95 C17.5,93.0729167 18.1510417,91.40625 19.453125,90 C18.1510417,88.59375 17.5,86.9270833 17.5,85 C17.5,82.1875 18.7239583,80.0520833 21.171875,78.59375 C20.9635417,75.9895833 20.078125,73.1901042 18.515625,70.1953125 C16.953125,67.2005208 15.4036458,64.7135417 13.8671875,62.734375 C12.3307292,60.7552083 10.390625,58.4895833 8.046875,55.9375 C2.68229167,50.0520833 0,43.0729167 0,35 C0,29.84375 1.15885417,25.0390625 3.4765625,20.5859375 C5.79427083,16.1328125 8.84114583,12.4348958 12.6171875,9.4921875 C16.3932292,6.54947917 20.6640625,4.23177083 25.4296875,2.5390625 C30.1953125,0.846354167 35.0520833,0 40,0 C44.9479167,0 49.8046875,0.846354167 54.5703125,2.5390625 C59.3359375,4.23177083 63.6067708,6.54947917 67.3828125,9.4921875 C71.1588542,12.4348958 74.2057292,16.1328125 76.5234375,20.5859375 C78.8411458,25.0390625 80,29.84375 80,35 Z"></path>
        </g>
    </g>
</svg>