<?xml version="1.0" encoding="UTF-8"?>
<svg width="240px" height="240px" viewBox="0 0 240 240" version="1.1" 
    xmlns="http://www.w3.org/2000/svg" 
    xmlns:xlink="http://www.w3.org/1999/xlink">
    <g stroke="none" stroke-width="1" fill="none" fill-rule="evenodd">
        <path d="M143.167173,174.183778 C142.290098,175.060853 140.982606,176.043503 139.244697,177.131726 C137.506788,178.219949 136.053116,178.991451 134.883682,179.446231 C132.577298,180.388275 128.87409,180.128401 123.774059,178.666608 C119.063838,177.269784 115.214451,175.077095 112.225897,172.088542 C111.348822,171.211466 110.544836,170.293785 109.81394,169.335499 C109.083043,168.377213 108.352147,167.240263 107.621251,165.92465 C106.890355,164.609036 106.362485,163.610145 106.037642,162.927975 C105.712799,162.245805 105.144325,161.011402 104.332218,159.224767 C103.520111,157.438132 103.016604,156.349908 102.821699,155.960097 C100.775189,151.639688 99.2809122,147.449216 98.3388681,143.388681 C96.7796227,136.696919 96,128.900692 96,120 C96,111.099308 96.7796227,103.303081 98.3388681,96.611319 C99.2809122,92.5507841 100.775189,88.3603121 102.821699,84.039903 C103.016604,83.6500916 103.520111,82.5618683 104.332218,80.7752329 C105.144325,78.9885976 105.712799,77.754195 106.037642,77.0720251 C106.362485,76.3898552 106.890355,75.3909637 107.621251,74.0753504 C108.352147,72.7597371 109.083043,71.6227873 109.81394,70.664501 C110.544836,69.7062148 111.348822,68.7885339 112.225897,67.9114584 C115.214451,64.9229047 119.063838,62.7302159 123.774059,61.3333919 C128.87409,59.8715993 132.577298,59.6117251 134.883682,60.5537692 C136.053116,61.0085491 137.506788,61.7800507 139.244697,62.8682741 C140.982606,63.9564974 142.290098,64.9391468 143.167173,65.8162224 C143.621953,66.2710023 143.914312,66.6608136 144.044249,66.9856564 C144.43406,67.7652791 144.060491,69.8605151 142.923541,73.2713644 C142.663667,74.2458928 142.273856,75.6102325 141.754107,77.3643836 C141.234359,79.1185347 140.771458,80.7183854 140.365404,82.1639359 C139.959351,83.6094863 139.593903,84.9819471 139.26906,86.2813182 C139.236576,86.5087082 139.114759,87.1989991 138.903612,88.352191 C138.692464,89.505383 138.465074,90.4311849 138.221442,91.1295969 C137.97781,91.8280089 137.628604,92.4046049 137.173824,92.8593848 C136.524138,93.5090704 135.24913,93.8582764 133.3488,93.9070028 C131.44847,93.9557292 129.548139,93.8420342 127.647809,93.5659178 C125.747479,93.2898015 123.879633,93.1436222 122.044271,93.1273801 C120.208909,93.1111379 118.99887,93.3953754 118.414153,93.9800924 C118.121794,94.2724509 117.837557,94.7191098 117.56144,95.3200689 C117.285324,95.9210281 117.090418,96.3920501 116.976723,96.7331351 C116.863028,97.07422 116.700607,97.6914213 116.489459,98.584739 C116.278311,99.4780566 116.156495,99.9734419 116.124011,100.070895 C114.14247,106.990046 113.151699,113.633081 113.151699,120 C113.151699,126.366919 114.14247,133.009954 116.124011,139.929105 C116.156495,140.026558 116.278311,140.521943 116.489459,141.415261 C116.700607,142.308579 116.863028,142.92578 116.976723,143.266865 C117.090418,143.60795 117.285324,144.078972 117.56144,144.679931 C117.837557,145.28089 118.121794,145.727549 118.414153,146.019908 C118.99887,146.604625 120.208909,146.888862 122.044271,146.87262 C123.879633,146.856378 125.747479,146.710199 127.647809,146.434082 C129.548139,146.157966 131.44847,146.044271 133.3488,146.092997 C135.24913,146.141724 136.524138,146.49093 137.173824,147.140615 C137.628604,147.595395 137.97781,148.171991 138.221442,148.870403 C138.465074,149.568815 138.692464,150.494617 138.903612,151.647809 C139.114759,152.801001 139.236576,153.491292 139.26906,153.718682 C139.593903,155.018053 139.959351,156.390514 140.365404,157.836064 C140.771458,159.281615 141.234359,160.881465 141.754107,162.635616 C142.273856,164.389767 142.663667,165.754107 142.923541,166.728636 C144.060491,170.139485 144.43406,172.234721 144.044249,173.014344 C143.914312,173.339186 143.621953,173.728998 143.167173,174.183778 Z" fill="#959595" fill-rule="nonzero"></path>
        <path d="M119.919998,8.66031759 L23.5,64.3300635 L23.5,175.669937 L119.919998,231.339682 L216.339996,175.669937 L216.339996,64.3300635 L119.919998,8.66031759 Z" stroke="#959595" stroke-width="13"></path>
    </g>
</svg>