<svg xmlns="http://www.w3.org/2000/svg" xmlns:xlink="http://www.w3.org/1999/xlink" width="164" height="164" viewBox="0 0 164 164">
  <g>
    <path d="M34.773,38.053V-14.628H6.72V-26.613h43.2V38.053Zm6.585-76.519a11.137,11.137,0,0,1-7.7-2.766,9.4,9.4,0,0,1-3.1-7.375,9.609,9.609,0,0,1,3.1-7.441,10.984,10.984,0,0,1,7.7-2.832,10.984,10.984,0,0,1,7.7,2.832,9.609,9.609,0,0,1,3.1,7.441,9.4,9.4,0,0,1-3.1,7.375,11.137,11.137,0,0,1-7.7,2.766Zm72.832,78.1A34.38,34.38,0,0,1,101.942,37.4a29.986,29.986,0,0,1-10.4-6.585,32.367,32.367,0,0,1-7.178-10.668,36.237,36.237,0,0,1-2.7-14.356,36.237,36.237,0,0,1,2.7-14.356,32.367,32.367,0,0,1,7.178-10.668,30.806,30.806,0,0,1,10.4-6.651,33.7,33.7,0,0,1,24.5,0,30.807,30.807,0,0,1,10.4,6.651A32.367,32.367,0,0,1,144.02-8.57a36.237,36.237,0,0,1,2.7,14.356,36.237,36.237,0,0,1-2.7,14.356,32.367,32.367,0,0,1-7.178,10.668,29.986,29.986,0,0,1-10.4,6.585,34.38,34.38,0,0,1-12.253,2.239Zm0-12.38a14.712,14.712,0,0,0,12.38-5.861q4.478-5.861,4.478-15.607,0-9.878-4.478-15.738a14.712,14.712,0,0,0-12.38-5.861,14.712,14.712,0,0,0-12.38,5.861q-4.479,5.86-4.479,15.738,0,9.746,4.478,15.607a14.712,14.712,0,0,0,12.38,5.861Zm-18.438-67.7V-50.451h36.877v10.009Z" transform="translate(5.28 91.885)" fill="#777"/>
  </g>
</svg>
