<svg xmlns="http://www.w3.org/2000/svg" xmlns:xlink="http://www.w3.org/1999/xlink" width="300" height="300" viewBox="0 0 300 300">
  <g>
    <path d="M285.15,153.927h-7.886V126.8a34.129,34.129,0,0,0-34.069-34.069H163.7V64.652A31.2,31.2,0,1,0,121.112,35.63a31.261,31.261,0,0,0,19.874,29.022V92.728H61.175A34.129,34.129,0,0,0,27.106,126.8v27.129H19.535A16.964,16.964,0,0,0,2.5,170.962v40.063a16.964,16.964,0,0,0,17.035,17.035h7.886v29.653a34.129,34.129,0,0,0,34.069,34.069H243.509a34.129,34.129,0,0,0,34.069-34.069V228.059h7.886A16.964,16.964,0,0,0,302.5,211.025V170.962A17.659,17.659,0,0,0,285.15,153.927ZM79.156,166.861a25.552,25.552,0,1,1,25.552,25.552A25.446,25.446,0,0,1,79.156,166.861Zm98.107,80.126H127.421a11.356,11.356,0,0,1,0-22.713h49.527A11.309,11.309,0,0,1,188.3,235.63,11.046,11.046,0,0,1,177.263,246.987Zm22.713-54.574a25.552,25.552,0,1,1,25.552-25.552A25.446,25.446,0,0,1,199.976,192.413Z" transform="translate(-2 1.702)" fill="rgba(255,255,255,0.33)"/>
  </g>
</svg>