<svg xmlns="http://www.w3.org/2000/svg" xmlns:xlink="http://www.w3.org/1999/xlink" width="680" height="90" viewBox="0 0 680 90">
  <g>
    <path fill="#777" d="M23.76,0V-32H6.72v-7.28H32.96V0Zm4-46.48a6.765,6.765,0,0,1-4.68-1.68,5.713,5.713,0,0,1-1.88-4.48,5.836,5.836,0,0,1,1.88-4.52,6.672,6.672,0,0,1,4.68-1.72,6.672,6.672,0,0,1,4.68,1.72,5.836,5.836,0,0,1,1.88,4.52,5.713,5.713,0,0,1-1.88,4.48A6.765,6.765,0,0,1,27.76-46.48ZM54.88,12.8,81.2-56.8h7.92L62.8,12.8ZM120,.96A20.884,20.884,0,0,1,112.56-.4a18.214,18.214,0,0,1-6.32-4,19.661,19.661,0,0,1-4.36-6.48,22.011,22.011,0,0,1-1.64-8.72,22.011,22.011,0,0,1,1.64-8.72,19.661,19.661,0,0,1,4.36-6.48,18.713,18.713,0,0,1,6.32-4.04,20.355,20.355,0,0,1,7.44-1.4,20.355,20.355,0,0,1,7.44,1.4,18.713,18.713,0,0,1,6.32,4.04,19.661,19.661,0,0,1,4.36,6.48,22.011,22.011,0,0,1,1.64,8.72,22.011,22.011,0,0,1-1.64,8.72,19.661,19.661,0,0,1-4.36,6.48,18.214,18.214,0,0,1-6.32,4A20.884,20.884,0,0,1,120,.96Zm0-7.52a8.936,8.936,0,0,0,7.52-3.56q2.72-3.56,2.72-9.48,0-6-2.72-9.56A8.936,8.936,0,0,0,120-32.72a8.936,8.936,0,0,0-7.52,3.56q-2.72,3.56-2.72,9.56,0,5.92,2.72,9.48A8.936,8.936,0,0,0,120-6.56ZM108.8-47.68v-6.08h22.4v6.08ZM216.16.96a28.37,28.37,0,0,1-10.56-2,28.129,28.129,0,0,1-8.96-5.68l5.44-6.32a25.085,25.085,0,0,0,6.72,4.28,19.6,19.6,0,0,0,7.92,1.64q4.56,0,6.96-1.76a5.415,5.415,0,0,0,2.4-4.56,5.991,5.991,0,0,0-.64-2.92,6.5,6.5,0,0,0-1.8-2.04,13.8,13.8,0,0,0-2.8-1.6q-1.64-.72-3.56-1.52l-7.12-3.12a26.221,26.221,0,0,1-4.08-2,17.09,17.09,0,0,1-3.6-2.88,13.119,13.119,0,0,1-2.56-3.92,12.891,12.891,0,0,1-.96-5.12,12.634,12.634,0,0,1,1.36-5.8,14.725,14.725,0,0,1,3.76-4.68,17.634,17.634,0,0,1,5.72-3.12,22.786,22.786,0,0,1,7.32-1.12,23.77,23.77,0,0,1,9.16,1.8,25.359,25.359,0,0,1,7.64,4.84l-4.8,5.92A23.252,23.252,0,0,0,223.56-44a18.148,18.148,0,0,0-6.92-1.2,10.314,10.314,0,0,0-6.04,1.6,5.238,5.238,0,0,0-2.28,4.56,4.579,4.579,0,0,0,.72,2.6A7.088,7.088,0,0,0,211-34.52a14.554,14.554,0,0,0,2.88,1.48q1.64.64,3.4,1.36l6.88,2.96a27.884,27.884,0,0,1,4.56,2.24,16.418,16.418,0,0,1,3.6,2.96,12.22,12.22,0,0,1,2.36,3.88,14.187,14.187,0,0,1,.84,5.08,13.894,13.894,0,0,1-1.32,6,14.652,14.652,0,0,1-3.8,4.92,18.526,18.526,0,0,1-6.08,3.36A24.979,24.979,0,0,1,216.16.96Zm55.12,0a20.908,20.908,0,0,1-7.56-1.2,12.2,12.2,0,0,1-4.96-3.4,13.431,13.431,0,0,1-2.72-5.32,26.431,26.431,0,0,1-.84-6.88V-32H244.72v-6.88l10.88-.4,1.2-12.32h7.6v12.32h17.92V-32H264.4v16.16q0,4.88,2.04,7.16t7.08,2.28a22.054,22.054,0,0,0,4.56-.44,27.7,27.7,0,0,0,4-1.16l1.76,6.72A58.049,58.049,0,0,1,278.16.28,31.644,31.644,0,0,1,271.28.96ZM298.4,0V-39.28H306l.8,8.88h.24a21.812,21.812,0,0,1,7.32-7.32,18.19,18.19,0,0,1,9.4-2.52,20.4,20.4,0,0,1,4.12.36,14.371,14.371,0,0,1,3.48,1.24l-1.92,7.76a26.556,26.556,0,0,0-3.4-.92,20.535,20.535,0,0,0-3.72-.28,14.718,14.718,0,0,0-7.84,2.32q-3.76,2.32-6.8,8.08V0Zm56.4.96a15.89,15.89,0,0,1-5.28-.84,12.714,12.714,0,0,1-4.16-2.36,10.449,10.449,0,0,1-2.72-3.64,11.214,11.214,0,0,1-.96-4.68,11.008,11.008,0,0,1,1.52-5.8,12.066,12.066,0,0,1,4.8-4.28,32.705,32.705,0,0,1,8.4-2.88,85.314,85.314,0,0,1,12.4-1.6,8.364,8.364,0,0,0-2.4-5.52q-2.16-2.16-6.96-2.16a18.326,18.326,0,0,0-6.6,1.24,49.682,49.682,0,0,0-6.28,2.92L343.2-34.8a51.555,51.555,0,0,1,8.24-3.76,28.214,28.214,0,0,1,9.68-1.68q8.24,0,12.56,4.36T378-23.28V0h-7.52l-.72-4.88h-.24A34.9,34.9,0,0,1,362.6-.76,18.73,18.73,0,0,1,354.8.96Zm2.8-7.2a13.109,13.109,0,0,0,5.72-1.32,28.9,28.9,0,0,0,5.48-3.48v-8.32a79.152,79.152,0,0,0-8.8,1.08,22.209,22.209,0,0,0-5.6,1.72,7.458,7.458,0,0,0-2.96,2.36,5.152,5.152,0,0,0-.88,2.92,4.122,4.122,0,0,0,2.04,3.84A9.709,9.709,0,0,0,357.6-6.24ZM415.28.96a20.908,20.908,0,0,1-7.56-1.2,12.2,12.2,0,0,1-4.96-3.4,13.431,13.431,0,0,1-2.72-5.32,26.431,26.431,0,0,1-.84-6.88V-32H388.72v-6.88l10.88-.4,1.2-12.32h7.6v12.32h17.92V-32H408.4v16.16q0,4.88,2.04,7.16t7.08,2.28a22.054,22.054,0,0,0,4.56-.44,27.7,27.7,0,0,0,4-1.16l1.76,6.72A58.049,58.049,0,0,1,422.16.28,31.644,31.644,0,0,1,415.28.96Zm43.12,0A24.792,24.792,0,0,1,450-.44a20.211,20.211,0,0,1-6.84-4.04,18.719,18.719,0,0,1-4.6-6.48,21.553,21.553,0,0,1-1.68-8.72,21.06,21.06,0,0,1,1.68-8.6,19.8,19.8,0,0,1,4.52-6.48,19.612,19.612,0,0,1,6.48-4.08,21.1,21.1,0,0,1,7.64-1.4,20.046,20.046,0,0,1,7.76,1.4A16.45,16.45,0,0,1,470.64-35a16.1,16.1,0,0,1,3.52,5.88,22.692,22.692,0,0,1,1.2,7.52q0,1.36-.12,2.6t-.28,2.04H446.08q.8,5.52,4.4,8.16a15.019,15.019,0,0,0,9.12,2.64,18.116,18.116,0,0,0,5.76-.88,28.926,28.926,0,0,0,5.28-2.4l3.12,5.76a28.473,28.473,0,0,1-7.08,3.36A26.753,26.753,0,0,1,458.4.96Zm-.96-34.08a11.317,11.317,0,0,0-7.16,2.4,11.291,11.291,0,0,0-3.96,7.2H467.2q-.48-4.8-3-7.2A9.4,9.4,0,0,0,457.44-33.12Zm45.44,50.48a38.6,38.6,0,0,1-7.36-.64,18.94,18.94,0,0,1-5.64-1.96,10.152,10.152,0,0,1-3.64-3.28,8.222,8.222,0,0,1-1.28-4.6q0-4.8,6.24-8.24v-.32a10.031,10.031,0,0,1-2.8-2.52,6.44,6.44,0,0,1-1.2-4.04,7.26,7.26,0,0,1,1.28-3.92,11.743,11.743,0,0,1,3.44-3.44v-.32A13.032,13.032,0,0,1,488.36-20a11.942,11.942,0,0,1-1.48-6.08,13.235,13.235,0,0,1,1.32-6,13.4,13.4,0,0,1,3.52-4.44,15.777,15.777,0,0,1,5.12-2.76,19.727,19.727,0,0,1,6.2-.96,18.89,18.89,0,0,1,6.16.96h16.08v7.04h-9.04a10.177,10.177,0,0,1,1.8,2.84,8.907,8.907,0,0,1,.76,3.64A12.721,12.721,0,0,1,517.56-20a12.19,12.19,0,0,1-3.36,4.16,15.026,15.026,0,0,1-5,2.56,20.974,20.974,0,0,1-6.16.88,18.213,18.213,0,0,1-6-1.12,4.232,4.232,0,0,0-2.4,3.68q0,3.68,7.44,3.68h8q7.68,0,11.56,2.2t3.88,7.4a10.093,10.093,0,0,1-1.6,5.44,14.392,14.392,0,0,1-4.52,4.44,24.245,24.245,0,0,1-7.12,2.96A37.778,37.778,0,0,1,502.88,17.36Zm.16-35.6a7.443,7.443,0,0,0,5.24-2.04,7.518,7.518,0,0,0,2.2-5.8,7.442,7.442,0,0,0-2.2-5.68,7.365,7.365,0,0,0-5.24-2.08,7.365,7.365,0,0,0-5.24,2.08,7.442,7.442,0,0,0-2.2,5.68,7.518,7.518,0,0,0,2.2,5.8A7.443,7.443,0,0,0,503.04-18.24ZM504,11.28a23.841,23.841,0,0,0,5.2-.52,16.307,16.307,0,0,0,4-1.4,7.785,7.785,0,0,0,2.56-2,3.814,3.814,0,0,0,.88-2.4,2.984,2.984,0,0,0-1.96-3.08,17.511,17.511,0,0,0-5.96-.76h-6.24a25.689,25.689,0,0,1-6-.56,8.955,8.955,0,0,0-2.96,2.48,4.6,4.6,0,0,0-.88,2.64q0,2.64,2.92,4.12T504,11.28ZM551.76,0V-32H534.72v-7.28h26.24V0Zm4-46.48a6.765,6.765,0,0,1-4.68-1.68,5.713,5.713,0,0,1-1.88-4.48,5.836,5.836,0,0,1,1.88-4.52,6.672,6.672,0,0,1,4.68-1.72,6.672,6.672,0,0,1,4.68,1.72,5.836,5.836,0,0,1,1.88,4.52,5.713,5.713,0,0,1-1.88,4.48A6.765,6.765,0,0,1,555.76-46.48ZM603.52.96a26.313,26.313,0,0,1-8.6-1.36,19.636,19.636,0,0,1-6.88-4,18.282,18.282,0,0,1-4.56-6.48,22.011,22.011,0,0,1-1.64-8.72,20.31,20.31,0,0,1,1.8-8.72,19.32,19.32,0,0,1,4.84-6.48,21.244,21.244,0,0,1,7.12-4.04,26.189,26.189,0,0,1,8.56-1.4,20.81,20.81,0,0,1,8.44,1.6,21.556,21.556,0,0,1,6.12,3.92l-4.4,5.76a19.242,19.242,0,0,0-4.68-2.8,13.142,13.142,0,0,0-5-.96,13.226,13.226,0,0,0-9.6,3.56,12.686,12.686,0,0,0-3.68,9.56,14.318,14.318,0,0,0,.96,5.36A12.107,12.107,0,0,0,595-10.12a11.634,11.634,0,0,0,4.12,2.64,14.638,14.638,0,0,0,5.28.92,14.371,14.371,0,0,0,6.12-1.28,27.549,27.549,0,0,0,5.08-3.04l3.84,5.92a23.917,23.917,0,0,1-7.56,4.44A24.563,24.563,0,0,1,603.52.96Zm44.72,0a31.16,31.16,0,0,1-10.56-1.8,39.065,39.065,0,0,1-8.72-4.28l4-5.84a32.928,32.928,0,0,0,7.64,3.64A28.324,28.324,0,0,0,649.44-6q4.08,0,6.04-1.36a4,4,0,0,0,1.96-3.36,3.637,3.637,0,0,0-.4-1.72,4.154,4.154,0,0,0-1.6-1.48,15.078,15.078,0,0,0-3.32-1.36q-2.12-.64-5.56-1.36-7.92-1.6-11.56-4.48a8.982,8.982,0,0,1-3.64-7.36,10.071,10.071,0,0,1,4.48-8.48q4.48-3.28,12.8-3.28a25.619,25.619,0,0,1,9.12,1.6,37.034,37.034,0,0,1,7.28,3.6l-4.24,5.68a25.969,25.969,0,0,0-6.16-2.88,22.363,22.363,0,0,0-6.8-1.04q-3.92,0-5.6,1.24a3.708,3.708,0,0,0-1.68,3.08q0,2.08,2.4,3.12a47.266,47.266,0,0,0,7.84,2.24,52.221,52.221,0,0,1,7.76,2.24,18.072,18.072,0,0,1,4.84,2.68,8.178,8.178,0,0,1,2.52,3.32,11.341,11.341,0,0,1,.72,4.16,9.783,9.783,0,0,1-1.2,4.76,11.407,11.407,0,0,1-3.52,3.84A18.553,18.553,0,0,1,656.16,0,29.555,29.555,0,0,1,648.24.96Z" transform="translate(3 66)"/>
  </g>
</svg>
